<?xml version="1.0" encoding="utf-8"?>
<!-- Generator: Adobe Illustrator 14.0.0, SVG Export Plug-In . SVG Version: 6.00 Build 43363)  -->
<!DOCTYPE svg PUBLIC "-//W3C//DTD SVG 1.1//EN" "http://www.w3.org/Graphics/SVG/1.1/DTD/svg11.dtd">
<svg version="1.1" id="Layer_1" xmlns="http://www.w3.org/2000/svg" xmlns:xlink="http://www.w3.org/1999/xlink" x="0px" y="0px"
	 width="164.334px" height="125px" viewBox="0 0 164.334 125" enable-background="new 0 0 164.334 125" xml:space="preserve">
<g>
	<path d="M50.748,113.278h1.074l1.161,3.502c0.126,0.367,0.251,0.938,0.251,0.938s0.165-0.562,0.319-0.938l1.509-3.569h0.125
		l1.519,3.569c0.155,0.367,0.31,0.938,0.31,0.938s0.135-0.571,0.261-0.938l1.161-3.502h0.996l-2.273,6.646h-0.125l-1.635-3.918
		c-0.135-0.318-0.271-0.803-0.271-0.803s-0.155,0.484-0.291,0.803l-1.673,3.918H53.04L50.748,113.278z"/>
	<path d="M62.431,113.278h4.179v0.899h-3.154v2.555h2.796v0.88h-2.796v1.345h3.289v0.899h-4.314V113.278z"/>
	<path d="M70.042,113.278h2.389c1.229,0,1.857,0.745,1.857,1.653c0,0.629-0.319,1.074-0.89,1.268
		c0.88,0.203,1.345,0.832,1.345,1.674c0,1.132-0.755,1.983-2.138,1.983h-2.563V113.278z M72.383,115.842
		c0.609,0,0.9-0.339,0.9-0.832s-0.281-0.832-0.919-0.832h-1.296v1.664H72.383z M72.548,118.957c0.793,0,1.17-0.465,1.17-1.123
		c0-0.657-0.406-1.121-1.219-1.121h-1.432v2.244H72.548z"/>
	<path d="M77.373,118.58l0.842-0.465c0.31,0.513,0.706,0.919,1.509,0.919c0.668,0,1.142-0.358,1.142-0.899
		c0-0.571-0.387-0.822-1.103-1.142l-0.436-0.194c-0.958-0.425-1.538-0.908-1.538-1.924c0-0.978,0.754-1.674,1.848-1.674
		c0.871,0,1.461,0.328,1.857,1.035l-0.803,0.492c-0.251-0.435-0.542-0.638-1.055-0.638c-0.522,0-0.851,0.319-0.851,0.765
		c0,0.492,0.28,0.715,0.948,1.006l0.426,0.193c1.122,0.493,1.722,1.016,1.722,2.07c0,1.15-0.9,1.818-2.138,1.818
		C78.495,119.943,77.741,119.324,77.373,118.58z"/>
	<path d="M85.092,113.278h1.016v6.578h-1.016V113.278z"/>
	<path d="M91.126,114.178h-1.953v-0.899h4.924v0.899h-1.955v5.679h-1.016V114.178z"/>
	<path d="M97.132,113.278h4.18v0.899h-3.154v2.555h2.797v0.88h-2.797v1.345h3.289v0.899h-4.314V113.278z"/>
	<path d="M104.202,118.58l0.842-0.465c0.309,0.513,0.705,0.919,1.51,0.919c0.666,0,1.141-0.358,1.141-0.899
		c0-0.571-0.387-0.822-1.104-1.142l-0.436-0.194c-0.957-0.425-1.537-0.908-1.537-1.924c0-0.978,0.754-1.674,1.848-1.674
		c0.871,0,1.461,0.328,1.857,1.035l-0.803,0.492c-0.252-0.435-0.543-0.638-1.055-0.638c-0.523,0-0.852,0.319-0.852,0.765
		c0,0.492,0.281,0.715,0.947,1.006l0.426,0.193c1.123,0.493,1.723,1.016,1.723,2.07c0,1.15-0.9,1.818-2.139,1.818
		C105.323,119.943,104.569,119.324,104.202,118.58z"/>
</g>
<g>
	<path d="M5.557,67.781c0,6.393,5.352,11.293,14.662,11.293c9.957,0,18.568-9.149,18.568-16.592c0-9.727-14.25-27.926-14.25-38.669
		c0-6.976,3.694-11.328,8.619-11.328c1.806,0,3.804,1.702,3.804,4.237c-1.035,0.184-1.928,0.965-1.928,2.274
		c0,1.503,1.162,2.416,2.904,2.416c1.506,0,2.816-1.454,2.816-3.891c0-4.388-2.635-7.261-6.94-7.261
		c-7.312,0-14.11,6.463-14.11,14.809c0,11.21,14.372,32.739,14.372,39.438c0,5.486-3.042,9.868-11.441,9.868
		c-5.553,0-11.44-4.318-11.44-9.575c0-8.955,17.433-24.586,31.269-24.586c8.226,0,14.81,1.727,14.81,2.888
		c0,1.161-1.749,1.521-1.749,1.521s1.135,2.453,4.039,2.453c2.005,0,3.337-1.87,3.337-3.923c0-3.447-4.422-5.593-14.341-5.593
		C25.125,37.559,5.557,54.63,5.557,67.781z"/>
	<path d="M41.336,57.381c0,12.46,2.725,16.08,6.782,16.08c1.782,0,4.387-2.24,5.286-5.145c0.784,2.496,2.312,4.545,3.779,4.545
		c3.47,0,6.442-4.736,11.269-18.895c-0.056,3.44-1.356,8.909-1.676,11.345c-0.24,1.833-0.514,2.663-0.691,3.571
		c-0.204,1.048-0.019,2.424,0.785,2.424c1.157,0,3.988-1.615,4.844-5.199c1.483-6.214,6.988-18.505,7.656-18.505
		c0.688,0-0.977,12.394-0.977,15.607c0,1.726-0.805,3.532-1.053,4.957c-0.209,1.202-0.215,2.667,1.162,2.667
		c1.032,0,3.474-2.87,4.362-6.047c0.635-2.271,1.408-6.151,3.58-10.726c1.217-2.562,3.35-7.341,3.969-7.341
		c0.151,0-0.033,2.862-0.268,4.863c-0.197,1.688-0.521,4.768-0.521,10.854c0,15,7.539,25.887,16.318,25.887
		c16.016,0,33.055-23.696,33.055-47.17c0-9.151-5.454-14.103-14.005-14.103c-9.909,0-20.161,8.926-20.757,15.534
		c-0.191,2.12,1.221,3.045,1.221,3.045s-3.934,2.443-3.934,5.963c0,2.57,1.743,4.316,3.603,4.316c0.66,0,1.379-0.106,1.379-0.106
		s-2.274,2.66-2.274,7.292c0,4.403,2.614,7.373,6.747,7.373c6.367,0,13.809-9.925,13.809-16.098c0-2.876-1.393-4.33-2.702-4.33
		c-2.216,0-5.401,2.921-5.401,5.746c0,2.114,1.093,3.296,2.6,3.296c2.514,0,7.557-4.141,9.169-7.923
		c0.634-1.487,1.354-1.758,1.047-1.938c-0.487-0.283-2.507,1.106-3.451,2.67c-2.053,3.401-3.46,4.523-5.63,4.523
		c-1.458,0-2.091-0.667-2.091-1.538c0-1.502,1.195-2.558,2.711-2.558c1.057,0,2.151,1.383,2.151,3.747
		c0,4.289-5.222,9.381-10.993,9.381c-3.7,0-4.935-4.022-4.935-5.834c0-1.812,0.925-4.428,0.925-4.428s1.764-0.968,3.085-2.686
		s2.301-2.727,1.321-3.637c-0.292-0.271-0.828-0.036-1.408,0.414c-0.975,0.755-2.027,2.034-2.027,2.034s-0.66,0.661-1.981,0.661
		s-2.322-0.414-2.322-2.373c0-2.029,1.549-3.324,1.549-3.324s0.351,0.465,1.707,0.465c2.054,0,4.31-3.418,2.872-4.341
		c-0.748-0.48-2.864,0.923-2.864,0.923s-0.844-1.568-0.63-3.215c0.521-4.009,6.989-9.58,14.86-9.58
		c7.404,0,11.648,5.26,11.648,13.867c0,20.356-12.935,40.211-25.11,40.211c-9.384,0-15.032-11.396-15.032-25.98
		c0-3.83,0.108-6.875,0.397-11.548c0.149-2.416,1.313-6.514-0.229-6.558c-2.338-0.066-8.538,9.623-11.62,19.231
		c-0.358-4.175,0.751-9.983,0.883-12.159c0.133-2.176,0.647-4.675,0.779-5.335c0.133-0.66,0.197-1.927-0.729-1.927
		c-2.052,0-8.334,9.528-11.621,19.836c-0.41-1.148,0.558-8.315,0.823-11.284c0.264-2.969,1.286-5.406,1.337-5.799
		c0.191-1.495-0.137-1.964-0.623-1.964c-0.747,0-4.258,4.25-4.919,6.496c-0.661,2.247-3.758,11.55-5.219,15.102
		c-1.614,3.926-3.688,7.491-4.687,7.491c-1.321,0-0.84-7.764-0.059-11.476c0.612-2.906,2.275-6.515,2.36-6.907
		c0.242-1.122,0.121-1.925-0.399-1.925c-1.792,0-5.23,3.966-5.952,6.019c-0.542,1.542-1.814,10.33-1.814,10.33
		s-0.681,3.318-2.58,3.318c-1.855,0-3.474-4.502-3.474-20.672c0-13.335,8.695-34.954,13.836-34.954c1.667,0,2.287,0.936,2.287,4.049
		c0,4.656-7.352,11.593-11.057,11.593c-3.699,0-6.163-1.148-7.12-2.44c0.401-0.222,0.978-0.655,0.978-1.715
		c0-1.1-0.882-2.09-2.318-2.09c-1.292,0-2.36,0.959-2.36,2.682c0,2.752,4.003,5.436,8.647,5.436c7.178,0,16.732-8.645,16.732-15.034
		c0-3.626-1.98-6.071-5.084-6.185C53.7,9.967,41.336,31.747,41.336,57.381z"/>
</g>
<g>
	<g>
		<path d="M4.271,80.568h8.744c8.744,0,14.978,5.815,14.978,14.225c0,8.41-6.192,14.225-14.978,14.225H4.271V80.568z
			 M12.723,103.871c6.317,0,9.205-3.764,9.205-9.078c0-5.312-2.887-9.078-9.205-9.078h-2.594v18.156H12.723z"/>
		<path d="M40.834,80.317h0.502l13.011,28.7h-6.15l-1.338-3.221H35.312l-1.339,3.221h-5.648L40.834,80.317z M44.767,100.902
			l-2.05-4.938c-0.837-2.008-1.716-5.104-1.716-5.104s-0.837,3.097-1.674,5.104l-2.05,4.938H44.767z"/>
		<path d="M58.193,80.568h7.865c7.949,0,12.718,4.142,12.718,11.004c0,6.861-4.811,10.961-12.718,10.961H64.05v6.484h-5.857V80.568z
			 M65.891,97.387c4.77,0,6.861-1.924,6.861-5.814c0-3.934-2.175-5.857-6.861-5.857H64.05v11.672H65.891z"/>
		<path d="M83.334,80.568h7.865c7.949,0,12.718,4.142,12.718,11.004c0,6.861-4.81,10.961-12.718,10.961h-2.008v6.484h-5.857V80.568z
			 M91.032,97.387c4.769,0,6.862-1.924,6.862-5.814c0-3.934-2.178-5.857-6.862-5.857h-1.841v11.672H91.032z"/>
		<path d="M108.476,80.568h18.826v5.146h-12.97v9.037h11.423v5.02h-11.423v4.1h13.557v5.146h-19.413V80.568z"/>
	</g>
	<path d="M159.42,104.911c-1.17,0-2.047,0.886-2.047,1.965c0,0.937,0.799,1.608,1.365,1.671c-0.594,0.378-1.17,0.633-2.164,0.639
		c-3.616,0.023-6.554-6.144-8.147-9.037c3.177-1.246,5.48-4.393,5.48-8.828c0-6.945-4.77-10.752-12.719-10.752h-7.864v28.449h5.856
		v-7.07h2.008c0.545,0,1.405-0.088,1.674-0.125c2.435,4.428,4.778,9.955,11.664,9.955c4.161,0,6.801-2.277,6.801-4.84
		C161.327,105.75,160.568,104.911,159.42,104.911z M141.021,96.844h-1.841V85.715h1.841c4.686,0,6.862,1.589,6.862,5.605
		S145.791,96.844,141.021,96.844z"/>
</g>
</svg>
