<?xml version="1.0" encoding="utf-8"?>
<!-- Generator: Adobe Illustrator 14.0.0, SVG Export Plug-In . SVG Version: 6.00 Build 43363)  -->
<!DOCTYPE svg PUBLIC "-//W3C//DTD SVG 1.1//EN" "http://www.w3.org/Graphics/SVG/1.1/DTD/svg11.dtd">
<svg version="1.1" id="Layer_1" xmlns="http://www.w3.org/2000/svg" xmlns:xlink="http://www.w3.org/1999/xlink" x="0px" y="0px"
	 width="303px" height="87.5px" viewBox="0 0 303 87.5" enable-background="new 0 0 303 87.5" xml:space="preserve">
<g>
	<path fill="#231F20" d="M113.152,69.28h1.074l1.161,3.502c0.126,0.367,0.251,0.938,0.251,0.938s0.165-0.562,0.319-0.938l1.509-3.57
		h0.125l1.519,3.57c0.155,0.367,0.31,0.938,0.31,0.938s0.812-0.316,0.938-0.684l2.644-3.757H124l-4.434,6.646h-0.125l-1.635-3.918
		c-0.135-0.319-0.271-0.803-0.271-0.803s-0.155,0.483-0.291,0.803l-1.673,3.918h-0.126L113.152,69.28z"/>
	<path fill="#231F20" d="M124.835,69.28h4.179v0.899h-3.154v2.554h2.796v0.881h-2.796v1.345h3.289v0.899h-4.314V69.28z"/>
	<path fill="#231F20" d="M132.447,69.28h2.39c1.229,0,1.857,0.745,1.857,1.654c0,0.629-0.32,1.073-0.891,1.267
		c0.881,0.203,1.346,0.832,1.346,1.674c0,1.132-0.756,1.983-2.139,1.983h-2.563V69.28z M134.788,71.844c0.609,0,0.9-0.339,0.9-0.832
		s-0.281-0.832-0.92-0.832h-1.296v1.664H134.788z M134.952,74.959c0.794,0,1.171-0.465,1.171-1.122c0-0.658-0.406-1.123-1.219-1.123
		h-1.432v2.245H134.952z"/>
	<path fill="#231F20" d="M139.778,74.581l0.842-0.464c0.309,0.513,0.705,0.919,1.508,0.919c0.668,0,1.143-0.358,1.143-0.899
		c0-0.571-0.387-0.822-1.104-1.142l-0.436-0.193c-0.957-0.426-1.537-0.91-1.537-1.926c0-0.977,0.754-1.674,1.848-1.674
		c0.87,0,1.461,0.329,1.857,1.035l-0.803,0.494c-0.252-0.436-0.543-0.639-1.055-0.639c-0.523,0-0.852,0.319-0.852,0.764
		c0,0.494,0.28,0.717,0.947,1.007l0.426,0.193c1.123,0.493,1.723,1.016,1.723,2.07c0,1.151-0.9,1.818-2.139,1.818
		C140.899,75.945,140.146,75.326,139.778,74.581z"/>
	<path fill="#231F20" d="M147.496,69.28h1.016v6.578h-1.016V69.28z"/>
	<path fill="#231F20" d="M153.531,70.18h-1.954V69.28h4.924v0.899h-1.953v5.679h-1.017V70.18z"/>
	<path fill="#231F20" d="M159.536,69.28h4.18v0.899h-3.154v2.554h2.797v0.881h-2.797v1.345h3.289v0.899h-4.314V69.28z"/>
	<path fill="#231F20" d="M166.606,74.581l0.842-0.464c0.311,0.513,0.707,0.919,1.51,0.919c0.668,0,1.141-0.358,1.141-0.899
		c0-0.571-0.387-0.822-1.102-1.142l-0.436-0.193c-0.959-0.426-1.539-0.91-1.539-1.926c0-0.977,0.756-1.674,1.848-1.674
		c0.871,0,1.461,0.329,1.857,1.035l-0.803,0.494c-0.252-0.436-0.541-0.639-1.055-0.639c-0.521,0-0.852,0.319-0.852,0.764
		c0,0.494,0.281,0.717,0.949,1.007l0.426,0.193c1.121,0.493,1.721,1.016,1.721,2.07c0,1.151-0.898,1.818-2.137,1.818
		C167.729,75.945,166.974,75.326,166.606,74.581z"/>
</g>
<g>
	<g>
		<path fill="#231F20" d="M141.894,35.569h8.744c8.744,0,14.979,5.815,14.979,14.226c0,8.408-6.192,14.225-14.979,14.225h-8.744
			V35.569z M150.345,58.873c6.317,0,9.205-3.766,9.205-9.078c0-5.313-2.888-9.08-9.205-9.08h-2.594v18.158H150.345z"/>
		<path fill="#231F20" d="M178.456,35.318h0.502L191.97,64.02h-6.15l-1.338-3.223h-11.548l-1.339,3.223h-5.648L178.456,35.318z
			 M182.39,55.902l-2.051-4.937c-0.837-2.009-1.715-5.104-1.715-5.104s-0.838,3.096-1.674,5.104l-2.051,4.937H182.39z"/>
		<path fill="#231F20" d="M195.815,35.569h7.865c7.949,0,12.719,4.142,12.719,11.003c0,6.862-4.812,10.962-12.719,10.962h-2.008
			v6.485h-5.857V35.569z M203.513,52.389c4.77,0,6.861-1.925,6.861-5.816c0-3.933-2.175-5.857-6.861-5.857h-1.84v11.674H203.513z"/>
		<path fill="#231F20" d="M220.956,35.569h7.865c7.949,0,12.718,4.142,12.718,11.003c0,6.862-4.81,10.962-12.718,10.962h-2.008
			v6.485h-5.857V35.569z M228.654,52.389c4.769,0,6.862-1.925,6.862-5.816c0-3.933-2.178-5.857-6.862-5.857h-1.841v11.674H228.654z"
			/>
		<path fill="#231F20" d="M246.098,35.569h18.826v5.146h-12.97v9.037h11.423v5.021h-11.423v4.101h13.557v5.146h-19.413V35.569z"/>
	</g>
	<path d="M297.042,59.912c-1.17,0-2.047,0.886-2.047,1.965c0,0.937,0.799,1.608,1.365,1.671c-0.594,0.378-1.17,0.633-2.164,0.64
		c-3.616,0.021-6.554-6.145-8.147-9.037c3.177-1.246,5.48-4.394,5.48-8.828c0-6.946-4.77-10.753-12.719-10.753h-7.864v28.45h5.856
		v-7.071h2.008c0.545,0,1.405-0.088,1.674-0.125c2.435,4.428,4.778,9.955,11.664,9.955c4.161,0,6.801-2.277,6.801-4.841
		C298.949,60.751,298.19,59.912,297.042,59.912z M278.644,51.844h-1.841V40.715h1.841c4.686,0,6.862,1.59,6.862,5.607
		C285.506,50.338,283.413,51.844,278.644,51.844z"/>
</g>
<g>
	<path d="M3.759,62.408c0,6.393,5.352,11.293,14.662,11.293c9.957,0,18.568-9.149,18.568-16.592c0-9.727-14.25-27.926-14.25-38.669
		c0-6.976,3.694-11.327,8.619-11.327c1.806,0,3.804,1.701,3.804,4.236c-1.035,0.184-1.928,0.965-1.928,2.273
		c0,1.504,1.162,2.416,2.904,2.416c1.506,0,2.816-1.453,2.816-3.891c0-4.389-2.635-7.262-6.94-7.262
		c-7.312,0-14.11,6.463-14.11,14.809c0,11.211,14.372,32.739,14.372,39.439c0,5.485-3.042,9.867-11.441,9.867
		c-5.553,0-11.44-4.318-11.44-9.574c0-8.955,17.433-24.587,31.269-24.587c8.226,0,14.81,1.728,14.81,2.888
		c0,1.161-1.749,1.521-1.749,1.521s1.135,2.452,4.039,2.452c2.005,0,3.337-1.87,3.337-3.923c0-3.447-4.422-5.594-14.341-5.594
		C23.327,32.186,3.759,49.257,3.759,62.408z"/>
	<path d="M39.538,52.008c0,12.461,2.725,16.08,6.782,16.08c1.782,0,4.387-2.24,5.286-5.145c0.784,2.496,2.312,4.545,3.779,4.545
		c3.47,0,6.442-4.736,11.269-18.895c-0.056,3.439-1.356,8.909-1.676,11.346c-0.24,1.833-0.514,2.662-0.691,3.57
		c-0.204,1.048-0.019,2.424,0.785,2.424c1.157,0,3.988-1.615,4.844-5.199c1.483-6.213,6.988-18.504,7.656-18.504
		c0.688,0-0.977,12.393-0.977,15.606c0,1.726-0.805,3.532-1.053,4.957c-0.209,1.202-0.215,2.667,1.162,2.667
		c1.032,0,3.474-2.869,4.362-6.047c0.635-2.271,1.408-6.15,3.581-10.726c1.217-2.562,3.35-7.341,3.969-7.341
		c0.151,0-0.034,2.861-0.268,4.863c-0.197,1.688-0.521,4.768-0.521,10.854c0,15,7.539,25.887,16.318,25.887
		c16.016,0,33.054-23.696,33.054-47.17c0-9.151-5.453-14.104-14.004-14.104c-9.909,0-20.161,8.926-20.757,15.534
		c-0.191,2.12,1.221,3.046,1.221,3.046s-3.934,2.443-3.934,5.963c0,2.57,1.743,4.316,3.603,4.316c0.66,0,1.379-0.106,1.379-0.106
		s-2.274,2.66-2.274,7.292c0,4.403,2.614,7.373,6.747,7.373c6.367,0,13.809-9.926,13.809-16.098c0-2.877-1.393-4.33-2.702-4.33
		c-2.216,0-5.401,2.922-5.401,5.746c0,2.115,1.093,3.297,2.6,3.297c2.514,0,7.557-4.142,9.169-7.924
		c0.634-1.487,1.354-1.758,1.047-1.938c-0.487-0.283-2.507,1.105-3.451,2.67c-2.053,3.401-3.46,4.523-5.63,4.523
		c-1.458,0-2.091-0.666-2.091-1.537c0-1.502,1.195-2.559,2.711-2.559c1.057,0,2.151,1.383,2.151,3.747
		c0,4.288-5.222,9.381-10.993,9.381c-3.7,0-4.935-4.022-4.935-5.834s0.925-4.429,0.925-4.429s1.764-0.967,3.085-2.686
		c1.321-1.717,2.301-2.727,1.321-3.637c-0.292-0.271-0.828-0.035-1.408,0.414c-0.975,0.756-2.027,2.034-2.027,2.034
		s-0.66,0.661-1.981,0.661s-2.322-0.414-2.322-2.373c0-2.029,1.549-3.324,1.549-3.324s0.351,0.465,1.707,0.465
		c2.054,0,4.31-3.418,2.872-4.341c-0.748-0.48-2.864,0.923-2.864,0.923s-0.844-1.568-0.63-3.215c0.521-4.01,6.989-9.58,14.86-9.58
		c7.404,0,11.649,5.26,11.649,13.867c0,20.356-12.935,40.211-25.111,40.211c-9.384,0-15.032-11.396-15.032-25.98
		c0-3.83,0.108-6.875,0.397-11.549c0.149-2.415,1.313-6.514-0.229-6.558c-2.339-0.066-8.539,9.622-11.62,19.231
		c-0.358-4.176,0.751-9.984,0.884-12.16c0.132-2.176,0.647-4.675,0.779-5.335s0.197-1.927-0.729-1.927
		c-2.052,0-8.335,9.527-11.621,19.836c-0.41-1.148,0.558-8.315,0.823-11.284c0.264-2.969,1.286-5.406,1.337-5.8
		c0.191-1.494-0.137-1.964-0.623-1.964c-0.747,0-4.258,4.249-4.919,6.495c-0.661,2.247-3.758,11.551-5.219,15.103
		c-1.614,3.926-3.688,7.491-4.687,7.491c-1.321,0-0.84-7.764-0.059-11.476c0.612-2.905,2.275-6.515,2.36-6.907
		c0.242-1.121,0.121-1.924-0.399-1.924c-1.792,0-5.23,3.966-5.952,6.019c-0.542,1.542-1.814,10.329-1.814,10.329
		s-0.681,3.318-2.58,3.318c-1.855,0-3.474-4.502-3.474-20.672c0-13.336,8.695-34.955,13.836-34.955c1.667,0,2.287,0.936,2.287,4.049
		c0,4.656-7.352,11.594-11.057,11.594c-3.699,0-6.163-1.148-7.12-2.44c0.401-0.222,0.978-0.655,0.978-1.716
		c0-1.1-0.882-2.09-2.318-2.09c-1.292,0-2.36,0.959-2.36,2.682c0,2.752,4.003,5.436,8.647,5.436c7.178,0,16.732-8.645,16.732-15.033
		c0-3.627-1.98-6.071-5.084-6.186C51.902,4.594,39.538,26.373,39.538,52.008z"/>
</g>
</svg>
